<?xml version="1.0" standalone="no"?>
<!DOCTYPE svg PUBLIC "-//W3C//DTD SVG 20010904//EN"
 "http://www.w3.org/TR/2001/REC-SVG-20010904/DTD/svg10.dtd">
<svg version="1.0" xmlns="http://www.w3.org/2000/svg"
 width="1024.000000pt" height="1024.000000pt" viewBox="0 0 1024.000000 1024.000000"
 preserveAspectRatio="xMidYMid meet">
<metadata>
Created by potrace 1.11, written by Peter Selinger 2001-2013
</metadata>
<g transform="translate(0.000000,1024.000000) scale(0.100000,-0.100000)"
fill="#000000" stroke="none">
<path d="M511 10224 c-248 -53 -452 -263 -499 -514 -4 -19 -7 -2087 -7 -4595
0 -5012 -5 -4609 61 -4745 84 -173 241 -302 426 -349 71 -19 201 -19 4623 -19
3822 0 4560 2 4613 13 79 17 212 82 273 132 102 84 185 216 219 347 18 68 18
233 19 4616 1 5045 7 4610 -68 4764 -81 165 -206 272 -395 339 l-61 22 -4570
2 c-3879 1 -4580 -1 -4634 -13z"/>
</g>
</svg>
