<?xml version="1.0" encoding="UTF-8"?>
<svg width="1400px" height="1400px" viewBox="0 0 1400 1400" version="1.1" xmlns="http://www.w3.org/2000/svg" xmlns:xlink="http://www.w3.org/1999/xlink">
    <!-- Generator: Sketch 40.1 (33804) - http://www.bohemiancoding.com/sketch -->
    <title>webpage bg</title>
    <desc>Created with Sketch.</desc>
    <defs></defs>
    <g id="Page-1" stroke="none" stroke-width="1" fill="none" fill-rule="evenodd">
        <g id="webpage-bg">
            <rect id="Rectangle" fill-opacity="0" fill="#FFFFFF" x="0" y="0" width="1400" height="1400"></rect>
            <g id="Group-2" transform="translate(124.000000, 124.000000)" fill="#0A4A62">
                <g id="layers-copy-2" transform="translate(18.000000, 9.000000)">
                    <g id="Capa_1">
                        <path d="M141.656073,66.6472844 L171.853018,49.4101702 L85.9280727,0.6576 L0,49.4101702 L30.1969455,66.6472844 L0,83.7781702 L30.1969455,101.015284 L0,118.14617 L85.9280727,167.192431 L171.853018,118.14617 L141.656073,101.015284 L171.853018,83.7781702 L141.656073,66.6472844 L141.656073,66.6472844 Z M85.9280727,7.84363636 L159.215709,49.425792 L85.9280727,91.2610211 L12.6373091,49.425792 L85.9280727,7.84363636 L85.9280727,7.84363636 Z M36.5109091,70.2496756 L85.9280727,98.4564305 L135.345236,70.2496756 L159.215709,83.793792 L85.9280727,125.629021 L12.6373091,83.793792 L36.5109091,70.2496756 L36.5109091,70.2496756 Z M159.215709,118.161792 L85.9280727,159.997021 L12.6373091,118.161792 L36.5109091,104.617676 L85.9280727,132.824431 L135.345236,104.617676 L159.215709,118.161792 L159.215709,118.161792 Z" id="Shape"></path>
                    </g>
                </g>
                <g id="macbook-copy-2" transform="translate(435.000000, 984.000000)">
                    <g id="Capa_1">
                        <g id="Group">
                            <path d="M256.46875,150.315789 L256.46875,13.2631579 C256.46875,5.96842105 250.499219,0 243.203125,0 L39.796875,0 C32.5007812,0 26.53125,5.96842105 26.53125,13.2631579 L26.53125,150.315789 L0,150.315789 L0,159.157895 C0,164.021053 3.9796875,168 8.84375,168 L274.15625,168 C279.020312,168 283,164.021053 283,159.157895 L283,150.315789 L256.46875,150.315789 L256.46875,150.315789 Z M30.953125,13.2631579 C30.953125,8.38673684 34.9195469,4.42105263 39.796875,4.42105263 L243.203125,4.42105263 C248.080453,4.42105263 252.046875,8.38673684 252.046875,13.2631579 L252.046875,150.315789 L30.953125,150.315789 L30.953125,13.2631579 L30.953125,13.2631579 Z M278.578125,159.157895 C278.578125,161.596105 276.594914,163.578947 274.15625,163.578947 L8.84375,163.578947 C6.40508594,163.578947 4.421875,161.596105 4.421875,159.157895 L4.421875,154.736842 L26.53125,154.736842 L123.8125,154.736842 C123.8125,157.168421 125.802344,159.157895 128.234375,159.157895 L154.765625,159.157895 C157.197656,159.157895 159.1875,157.168421 159.1875,154.736842 L256.46875,154.736842 L278.578125,154.736842 L278.578125,159.157895 L278.578125,159.157895 Z" id="Shape"></path>
                            <path d="M240.992188,8.84210526 L42.0078125,8.84210526 C38.3442891,8.84210526 35.375,11.8108421 35.375,15.4736842 L35.375,139.263158 C35.375,142.926 38.3442891,145.894737 42.0078125,145.894737 L240.992188,145.894737 C244.655711,145.894737 247.625,142.926 247.625,139.263158 L247.625,15.4736842 C247.625,11.8108421 244.655711,8.84210526 240.992188,8.84210526 L240.992188,8.84210526 Z M245.414062,139.263158 C245.414062,141.701368 243.430852,143.684211 240.992187,143.684211 L42.0078125,143.684211 C39.5691484,143.684211 37.5859375,141.701368 37.5859375,139.263158 L37.5859375,15.4736842 C37.5859375,13.0354737 39.5691484,11.0526316 42.0078125,11.0526316 L240.992187,11.0526316 C243.430852,11.0526316 245.414062,13.0354737 245.414062,15.4736842 L245.414062,139.263158 L245.414062,139.263158 Z" id="Shape"></path>
                        </g>
                    </g>
                </g>
                <g id="browser-copy-2" transform="translate(476.000000, 497.000000)">
                    <g id="Layer_1">
                        <g id="browser-html-tags">
                            <path d="M121.49354,113.172885 C121.985441,114.378752 123.148349,115.111111 124.375,115.111111 C124.76678,115.111111 125.161358,115.038313 125.547231,114.883377 L162.859731,99.7042611 C164.022639,99.2304451 164.784741,98.1032867 164.796875,96.8485837 C164.808997,95.5907593 164.062197,94.451472 162.908244,93.9592845 L125.595744,78.026975 C124.028993,77.3584 122.188804,78.0845346 121.514689,79.6674695 C120.840574,81.2472889 121.575312,83.0763117 123.154256,83.7508028 L153.601256,96.7511953 L123.203077,109.116623 C121.611703,109.763735 120.846481,111.580622 121.49354,113.172885 L121.49354,113.172885 Z" id="Shape"></path>
                            <path d="M42.3593275,99.7042611 L79.6718275,114.883377 C80.0573916,115.038313 80.4519703,115.111111 80.84375,115.111111 C82.0704006,115.111111 83.2336172,114.378752 83.7255181,113.172885 C84.3722688,111.580622 83.6071184,109.763735 82.0159869,109.116623 L51.6174944,96.7511953 L82.0644937,83.7508028 C83.6434316,83.0763117 84.3782406,81.2472889 83.7040669,79.6674695 C83.0271528,78.0845346 81.1870228,77.3555994 79.6230122,78.026975 L42.3105122,93.9592845 C41.1566219,94.451472 40.4097497,95.5907593 40.4218781,96.8485837 C40.4340031,98.1032867 41.1961109,99.2304451 42.3593275,99.7042611 L42.3593275,99.7042611 Z" id="Shape"></path>
                            <path d="M88.9088456,127.288313 C89.3186603,127.470617 89.7468244,127.555556 90.1687672,127.555556 C91.362141,127.555556 92.4979991,126.865826 93.0141566,125.708179 L117.889157,69.708179 C118.584479,68.1376876 117.879822,66.2993308 116.310213,65.6005756 C114.743403,64.9049358 112.906072,65.61582 112.204593,67.1804012 L87.3295931,123.180401 C86.6343419,124.751195 87.3389222,126.589552 88.9088456,127.288313 L88.9088456,127.288313 Z" id="Shape"></path>
                            <path d="M186.5625,0 L12.4375,0 C5.56827124,0 2.48749984e-06,5.57137809 2.48749984e-06,12.4444444 L2.48749984e-06,28 L2.48749984e-06,34.2222222 L2.48749984e-06,155.555556 C2.48749984e-06,162.428307 5.56827124,168 12.4375019,168 L186.562502,168 C193.431727,168 199.000002,162.428307 199.000002,155.555556 L199.000002,34.2222222 L199.000002,28 L199.000002,12.4444444 C199,5.57137809 193.431725,0 186.5625,0 L186.5625,0 Z M192.78125,155.555556 C192.78125,158.986484 189.991514,161.777778 186.5625,161.777778 L12.4375,161.777778 C9.00848218,161.777778 6.21875062,158.986484 6.21875062,155.555556 L6.21875062,34.2222222 L192.781251,34.2222222 L192.781251,155.555556 L192.78125,155.555556 Z M192.78125,28 L6.21875,28 L6.21875,12.4444444 C6.21875,9.01351142 9.00848156,6.22222222 12.4374994,6.22222222 L186.562499,6.22222222 C189.991513,6.22222222 192.781249,9.01351142 192.781249,12.4444444 L192.781249,28 L192.78125,28 Z" id="Shape"></path>
                            <path d="M18.6562516,12.4444444 C15.6557056,12.4444444 13.2148453,14.886666 13.2148453,17.8888889 C13.2148453,20.8908 15.6557056,23.3333333 18.6562516,23.3333333 C21.6567975,23.3333333 24.0976578,20.8908 24.0976578,17.8888889 C24.0976578,14.886666 21.6567987,12.4444444 18.6562516,12.4444444 L18.6562516,12.4444444 Z M18.6562516,20.2222222 C17.3683491,20.2222222 16.3242203,19.1775105 16.3242203,17.8888889 C16.3242203,16.6002673 17.3683491,15.5555556 18.6562516,15.5555556 C19.9441556,15.5555556 20.9882828,16.6002673 20.9882828,17.8888889 C20.9882828,19.1775105 19.9441556,20.2222222 18.6562516,20.2222222 L18.6562516,20.2222222 Z" id="Shape"></path>
                            <path d="M49.75,12.4444444 C46.7494556,12.4444444 44.3085938,14.886666 44.3085938,17.8888889 C44.3085938,20.8908 46.7494556,23.3333333 49.75,23.3333333 C52.7505444,23.3333333 55.1914063,20.8908 55.1914063,17.8888889 C55.1914063,14.886666 52.7505475,12.4444444 49.75,12.4444444 L49.75,12.4444444 Z M49.75,20.2222222 C48.4620975,20.2222222 47.4179688,19.1775105 47.4179688,17.8888889 C47.4179688,16.6002673 48.4620975,15.5555556 49.75,15.5555556 C51.0379025,15.5555556 52.0820313,16.6002673 52.0820313,17.8888889 C52.0820313,19.1775105 51.0379025,20.2222222 49.75,20.2222222 L49.75,20.2222222 Z" id="Shape"></path>
                            <path d="M34.2031281,12.4444444 C31.2025806,12.4444444 28.7617219,14.886666 28.7617219,17.8888889 C28.7617219,20.8908 31.2025806,23.3333333 34.2031281,23.3333333 C37.2036756,23.3333333 39.6445344,20.8908 39.6445344,17.8888889 C39.6445344,14.886666 37.2036725,12.4444444 34.2031281,12.4444444 L34.2031281,12.4444444 Z M34.2031281,20.2222222 C32.9152225,20.2222222 31.8710969,19.1775105 31.8710969,17.8888889 C31.8710969,16.6002673 32.9152225,15.5555556 34.2031281,15.5555556 C35.4910306,15.5555556 36.5351594,16.6002673 36.5351594,17.8888889 C36.5351594,19.1775105 35.4910306,20.2222222 34.2031281,20.2222222 L34.2031281,20.2222222 Z" id="Shape"></path>
                        </g>
                    </g>
                </g>
                <g id="ruler-and-pencil-copy" transform="translate(964.000000, 492.000000)">
                    <g id="Capa_1">
                        <g id="Group">
                            <path d="M138.176364,6.02438919 L162.720909,30.5387676 L155.244545,38.0043243 L146.811818,29.593427 C146.236364,29.0113297 145.295455,29.0086054 144.713636,29.593427 C144.128182,30.1782486 144.128182,31.1145081 144.713636,31.6966054 L153.143636,40.1111351 L147.105455,46.1464216 L138.672727,37.7291676 C138.09,37.1507027 137.15,37.1507027 136.570909,37.7291676 C135.991818,38.3112649 135.991818,39.252973 136.570909,39.8323459 L144.990909,48.2432432 L138.149091,55.0840216 L129.719091,46.6694919 C129.146364,46.0810378 128.193636,46.0846703 127.613636,46.6694919 C127.038182,47.2515892 127.038182,48.1932973 127.613636,48.7726703 L136.046364,57.1872 L129.435455,63.7909622 L113.922727,48.3077189 C113.347273,47.7228973 112.4,47.7228973 111.824545,48.3077189 C111.239091,48.8925405 111.239091,49.8315243 111.824545,50.4108973 L127.324545,65.8941405 L117.752727,75.4619676 L109.32,67.0474378 C108.737273,66.4626162 107.800909,66.4626162 107.211818,67.0474378 C106.629091,67.6295351 106.629091,68.5648865 107.211818,69.1469838 L115.638182,77.5615135 L114.001818,79.1933838 L118.215455,83.3952 L166.933636,34.7360432 C169.26,32.4185514 169.26,28.6453622 166.933636,26.3215135 L142.402727,1.80895135 C140.066364,-0.511264865 136.292727,-0.511264865 133.97,1.80895135 L85.2581818,50.4744649 L89.4581818,54.6835459 L138.176364,6.02438919 L138.176364,6.02438919 Z" id="Shape"></path>
                            <path d="M78.5554545,114.605968 L70.1318182,106.191438 C69.5490909,105.606616 68.6090909,105.606616 68.0263636,106.191438 C67.4409091,106.782616 67.4436364,107.715243 68.0263636,108.294616 L76.45,116.721859 L66.8727273,126.280605 L51.3727273,110.797362 C50.7936364,110.212541 49.8536364,110.212541 49.2672727,110.797362 C48.6845455,111.372195 48.6818182,112.318443 49.2672727,112.893276 L64.7672727,128.389232 L58.1563636,134.992995 L49.7327273,126.569384 C49.1536364,125.994551 48.21,125.994551 47.6272727,126.569384 C47.0418182,127.151481 47.0418182,128.103178 47.6272727,128.672562 L56.0509091,137.093449 L49.2054545,143.92787 L40.7854545,135.520605 C40.2027273,134.938508 39.26,134.938508 38.6772727,135.516973 C38.0981818,136.09907 38.1018182,137.038054 38.6772727,137.616519 L47.1036364,146.043762 L41.0654545,152.072692 L32.6418182,143.651805 C32.0590909,143.066984 31.1190909,143.066984 30.5363636,143.651805 C29.9536364,144.233903 29.9572727,145.172886 30.54,145.747719 L38.96,154.17133 L31.4863636,161.639611 L6.94,137.125232 L55.6518182,88.4569946 L51.4381818,84.2579027 L2.73,132.919784 C0.403636364,135.24 0.407272727,139.010465 2.73,141.343395 L27.2681818,165.848692 C29.5909091,168.168908 33.3681818,168.168908 35.6881818,165.848692 L84.4,117.183178 L80.19,112.971373 L78.5554545,114.605968 L78.5554545,114.605968 Z" id="Shape"></path>
                            <path d="M169.348182,162.719351 C154.775455,131.02547 153.490909,129.745038 153.005455,129.254659 L24.87,2.10771892 C22.2154545,-0.543956757 17.8881818,-0.543956757 15.2327273,2.10771892 L1.99090909,15.3388541 C-0.663636364,17.9905297 -0.663636364,22.3067676 1.99090909,24.9620757 L130.123636,152.114465 C130.67,152.653881 131.951818,153.927957 164.971818,167.291676 C166.263636,167.812022 167.75,167.496 168.707273,166.488908 C169.682727,165.484541 169.927273,163.989795 169.348182,162.719351 L169.348182,162.719351 Z M6.80272727,20.1554595 L20.0445455,6.9216 L34.9127273,21.7773405 L21.6809091,35.0075676 L6.80272727,20.1554595 L6.80272727,20.1554595 Z M26.4963636,39.8205405 L39.7381818,26.5903135 L145.779091,131.665686 L132.540909,144.889557 L26.4963636,39.8205405 L26.4963636,39.8205405 Z M138.293636,148.776259 L149.791818,137.281427 C151.994545,141.682119 155.7,149.510919 159.522727,157.733838 C151.024545,154.240346 142.890909,150.827676 138.293636,148.776259 L138.293636,148.776259 Z" id="Shape"></path>
                        </g>
                    </g>
                </g>
                <g id="command-copy-2" transform="translate(3.000000, 497.000000)">
                    <g id="Group">
                        <path d="M159.140898,121.475915 C159.02235,121.442553 158.901422,121.416738 158.779701,121.398468 L134.036697,117.67983 C130.035377,115.086752 129.657924,108.655092 129.650391,101.69044 C137.464305,93.6228652 142.337891,82.2655887 142.337891,69.7021277 L142.337891,68.6845957 C148.402516,63.2899291 151.853516,55.6358014 151.853516,47.4609929 L151.853516,28.3971631 C151.853516,12.7390071 139.136279,0 123.504883,0 L82.2705078,0 C76.3513926,0 71.3810645,4.14638298 70.1012129,9.6911773 C59.2145449,11.0085674 50.75,20.3200567 50.75,31.5744681 L50.75,47.4609929 C50.75,55.6369929 54.2006035,63.2903262 60.265625,68.6849929 L60.265625,69.7021277 C60.265625,82.2655887 65.1392109,93.6228652 72.9527285,101.69044 C72.9455918,108.655092 72.5677422,115.086355 68.5664219,117.67983 L43.823418,121.398468 C43.7016973,121.416738 43.581166,121.442553 43.4622207,121.475915 C38.0204727,123.003007 33.3903281,126.383262 30.0721504,131.252085 C27.0434063,135.69634 25.375,141.06122 25.375,146.358582 L25.375,158.666667 C25.375,163.798014 29.9448789,167.972596 35.561873,167.972596 L167.041246,167.972596 C172.65824,167.972596 177.228119,163.798014 177.228119,158.666667 L177.228119,146.358582 C177.228119,141.061617 175.559713,135.696738 172.530969,131.252482 C169.213188,126.38366 164.582646,123.003007 159.140898,121.475915 L159.140898,121.475915 Z M101.301758,113.985816 C109.604141,113.985816 117.336775,111.308936 123.802246,106.716539 C124.088111,112.152908 125.212145,118.184624 129.625809,121.819858 C127.238973,133.992113 115.379729,142.978723 101.301758,142.978723 C87.2237871,142.978723 75.364543,133.992113 72.977707,121.819858 C77.3917676,118.184624 78.5154043,112.152908 78.8012695,106.716539 C85.2667402,111.308936 92.999375,113.985816 101.301758,113.985816 L101.301758,113.985816 Z M66.2128906,67.5939858 C66.229543,67.4124823 66.2291465,67.2309787 66.2128906,67.0502695 L66.2128906,50.6379007 C66.2128906,45.2726241 70.5706504,40.9074043 75.9267578,40.9074043 L129.848633,40.9074043 C131.490871,40.9074043 132.822266,39.5741277 132.822266,37.9286809 C132.822266,36.2836312 131.490871,34.9499574 129.848633,34.9499574 L75.9267578,34.9499574 C67.2913281,34.9499574 60.265625,41.9876879 60.265625,50.6379007 L60.265625,59.615773 C57.9592754,56.0393191 56.6972656,51.8464681 56.6972656,47.4605957 L56.6972656,31.5740709 C56.6972656,22.7046241 63.9005938,15.4889645 72.7548828,15.4889645 C74.3971211,15.4889645 75.7285156,14.1556879 75.7285156,12.5102411 C75.7285156,8.89685106 78.663293,5.95704965 82.2705078,5.95704965 L123.504883,5.95704965 C135.856957,5.95704965 145.90625,16.0235461 145.90625,28.396766 L145.90625,47.4605957 C145.90625,51.8456738 144.64424,56.0385248 142.337891,59.6153759 L142.337891,47.4605957 C142.337891,45.8155461 141.006496,44.4818723 139.364258,44.4818723 C137.72202,44.4818723 136.390625,45.8155461 136.390625,47.4605957 L136.390625,69.7017305 C136.390625,90.8347801 120.649799,108.027972 101.301758,108.027972 C81.9537168,108.027972 66.2128906,90.8347801 66.2128906,69.7017305 L66.2128906,67.5939858 L66.2128906,67.5939858 Z M171.28125,158.666667 C171.28125,160.481702 169.339666,162.015149 167.041643,162.015149 L35.561873,162.015149 C33.2638496,162.015149 31.3222656,160.481702 31.3222656,158.666667 L31.3222656,146.358582 C31.3222656,138.809305 35.9841289,129.859234 44.8959082,127.26139 L67.3317695,123.889475 C70.657877,138.362496 84.7180059,148.93617 101.301758,148.93617 C117.88551,148.93617 131.945639,138.362496 135.271746,123.889475 L157.707607,127.26139 C166.619387,129.859234 171.28125,138.809305 171.28125,146.358582 L171.28125,158.666667 L171.28125,158.666667 Z" id="Shape"></path>
                        <path d="M18.8330078,133.446809 L7.64065039,133.446809 C6.67164258,133.446809 5.94726562,132.85861 5.94726562,132.331972 L5.94726562,124.368454 C5.94726562,119.896 8.68023242,114.60261 13.9066895,113.041759 L30.0935605,110.609135 C30.1637383,110.598809 30.2315371,110.582922 30.3001289,110.567433 C30.3298652,110.560681 30.359998,110.557106 30.3897344,110.54956 C30.50075,110.521362 30.6081973,110.485617 30.7132656,110.445504 C30.7386406,110.435972 30.7636191,110.424057 30.7885977,110.413333 C30.8750313,110.377589 30.9590859,110.33827 31.0411582,110.294979 C31.0546387,110.28783 31.0693086,110.283064 31.0827891,110.275518 C31.108957,110.26122 31.1327461,110.245333 31.1589141,110.230638 C31.1811172,110.217532 31.2033203,110.20522 31.225127,110.191716 C34.8279805,108.132823 36.0749238,104.404652 36.5043164,100.761475 C40.4517148,103.107915 44.9843242,104.447546 49.8039883,104.447546 C53.8493184,104.447546 57.7483457,103.526922 61.3928301,101.710695 C62.8629941,100.977929 63.4624785,99.1902979 62.7309648,97.7172199 C61.9994512,96.2441418 60.2144785,95.6440284 58.743918,96.3767943 C55.9296719,97.7787801 52.9215449,98.4900993 49.8039883,98.4900993 C37.8638613,98.4900993 28.1503906,87.8377872 28.1503906,74.7445106 L28.1503906,62.0384681 C28.1503906,59.1467234 30.4987676,56.7943262 33.3855703,56.7943262 L41.0361328,56.7943262 C42.6783711,56.7943262 44.0097656,55.4610496 44.0097656,53.8156028 C44.0097656,52.1705532 42.6783711,50.8368794 41.0361328,50.8368794 L33.3855703,50.8368794 C27.2194453,50.8368794 22.203125,55.8617872 22.203125,62.0384681 L22.203125,63.5997163 C21.9446172,62.5504113 21.8066406,61.4633759 21.8066406,60.3544965 L21.8066406,50.0759149 C21.8066406,44.9171631 25.996291,40.7203404 31.1462266,40.7203404 C32.7884648,40.7203404 34.1198594,39.3866667 34.1198594,37.741617 C34.1198594,35.9833759 35.5475996,34.5531915 37.3028359,34.5531915 L41.0361328,34.5531915 C42.6783711,34.5531915 44.0097656,33.2199149 44.0097656,31.5744681 C44.0097656,29.9294184 42.6783711,28.5957447 41.0361328,28.5957447 L37.3028359,28.5957447 C33.2305449,28.5957447 29.7724082,31.2801702 28.5992109,34.9753759 C21.378041,36.1934752 15.859375,42.5012199 15.859375,50.0759149 L15.859375,60.3544965 C15.859375,65.8722837 18.1581914,71.039773 22.203125,74.721078 L22.203125,74.7449078 C22.203125,83.191773 25.501875,90.8200851 30.779082,96.2334184 C30.7469668,100.02156 30.4575332,103.417305 28.5881094,104.811745 L12.8302344,107.180028 C12.7085137,107.198298 12.5879824,107.224113 12.4690371,107.257475 C4.28282422,109.554667 0,117.603972 0,124.368454 L0,132.331972 C0,136.231319 3.42760742,139.404255 7.64065039,139.404255 L18.8330078,139.404255 C20.4752461,139.404255 21.8066406,138.070979 21.8066406,136.425532 C21.8066406,134.780482 20.4752461,133.446809 18.8330078,133.446809 L18.8330078,133.446809 Z" id="Shape"></path>
                        <path d="M190.135469,107.257475 C190.016921,107.224511 189.895993,107.198298 189.774272,107.180028 L174.016397,104.811745 C172.146973,103.417305 171.857143,100.02156 171.825028,96.2338156 C177.102235,90.8200851 180.400985,83.191773 180.400985,74.7449078 L180.400985,74.721078 C184.445919,71.039773 186.744735,65.8718865 186.744735,60.3513191 L186.744735,44.2836879 C186.744735,35.6334752 179.719032,28.5957447 171.083602,28.5957447 L161.567977,28.5957447 C159.925739,28.5957447 158.594344,29.9294184 158.594344,31.5744681 C158.594344,33.2199149 159.925739,34.5531915 161.567977,34.5531915 L171.083602,34.5531915 C176.43971,34.5531915 180.797469,38.9184113 180.797469,44.2836879 L180.797469,60.3544965 C180.797469,61.4633759 180.659493,62.5504113 180.400985,63.5997163 L180.400985,62.0384681 C180.400985,55.8617872 175.384665,50.8368794 169.21854,50.8368794 L161.568374,50.8368794 C159.926135,50.8368794 158.594741,52.1705532 158.594741,53.8156028 C158.594741,55.4610496 159.926135,56.7943262 161.568374,56.7943262 L169.218936,56.7943262 C172.105739,56.7943262 174.454116,59.1467234 174.454116,62.0384681 L174.454116,74.7445106 C174.454116,87.8377872 164.740645,98.4900993 152.801311,98.4900993 C149.683358,98.4900993 146.675628,97.7787801 143.861382,96.3767943 C142.390425,95.6440284 140.605848,96.244539 139.874335,97.7172199 C139.142821,99.1902979 139.742305,100.977929 141.212469,101.710695 C144.856954,103.526525 148.755981,104.447546 152.801311,104.447546 C157.620579,104.447546 162.153585,103.107915 166.100587,100.761475 C166.529979,104.404255 167.777319,108.132823 171.380173,110.191716 C171.401583,110.20522 171.424182,110.217532 171.445989,110.230638 C171.47176,110.245333 171.495946,110.26122 171.522114,110.275518 C171.535594,110.283064 171.550264,110.28783 171.563745,110.294979 C171.645421,110.33827 171.729475,110.377589 171.815909,110.413333 C171.841284,110.424057 171.866262,110.435972 171.891637,110.445504 C171.996706,110.485617 172.103757,110.521362 172.214772,110.54956 C172.244905,110.557106 172.275038,110.561078 172.305171,110.56783 C172.372969,110.582922 172.440768,110.598809 172.51055,110.609135 L188.697024,113.041759 C193.923878,114.60261 196.656844,119.896 196.656844,124.368454 L196.656844,132.331972 C196.656844,132.858213 195.932468,133.446809 194.96346,133.446809 L183.771499,133.446809 C182.12926,133.446809 180.797866,134.780482 180.797866,136.425532 C180.797866,138.070979 182.12926,139.404255 183.771499,139.404255 L194.963856,139.404255 C199.176899,139.404255 202.604507,136.231716 202.604507,132.331972 L202.604507,124.368454 C202.604507,117.604369 198.321682,109.555064 190.135469,107.257475 L190.135469,107.257475 Z" id="Shape"></path>
                    </g>
                </g>
                <g id="Capa_1-Copy" transform="translate(981.000000, 0.000000)">
                    <path d="M46.405345,85.9642768 L56.9960058,109.679141 C57.4474649,110.689947 58.4501287,111.340697 59.5561433,111.340697 C60.6621579,111.340697 61.6648216,110.689947 62.1162807,109.679141 L72.714152,85.9482387 C72.782652,85.8022912 72.9861491,84.9490597 72.978538,84.6796181 L72.978538,16.9559714 C72.978538,16.0502148 72.8046842,15.1845537 72.4886228,14.3902625 L72.4886228,6.76610979 C72.4886228,3.03522673 69.4557953,0 65.7287544,0 L53.3843333,0 C49.6564912,0 46.6240643,3.03522673 46.6240643,6.76610979 L46.6240643,14.3886587 C46.3080029,15.1833508 46.1337485,16.0494129 46.1337485,16.9555704 L46.1337485,84.6956563 C46.1289415,84.8981384 46.3068012,85.7569833 46.405345,85.9642768 L46.405345,85.9642768 Z M59.5557427,101.656439 L53.2625556,87.5640859 L65.8493304,87.5640859 L59.5557427,101.656439 L59.5557427,101.656439 Z M52.2318509,6.76610979 C52.2318509,6.14102148 52.7594211,5.61336516 53.3839327,5.61336516 L65.7283538,5.61336516 C66.3528655,5.61336516 66.8800351,6.14142243 66.8800351,6.76610979 L66.8800351,10.0499284 C66.6000263,10.0154463 66.3152105,9.9978043 66.0259883,9.9978043 L59.6130263,9.9978043 C59.5745702,9.99700239 59.5365146,9.99700239 59.4980585,9.9978043 L53.0842953,9.9978043 C52.7954737,9.9978043 52.5110585,10.0154463 52.2314503,10.0499284 L52.2314503,6.76610979 L52.2318509,6.76610979 Z M51.7419357,16.9559714 C51.7419357,15.8553508 52.6849123,15.6111695 53.0850965,15.6111695 L56.7520497,15.6111695 L56.7520497,53.5029881 C56.7520497,55.0530788 58.0074825,56.3096706 59.5561433,56.3096706 C61.1048041,56.3096706 62.3602368,55.0530788 62.3602368,53.5029881 L62.3602368,15.6111695 L66.0263889,15.6111695 C66.4265731,15.6111695 67.3699503,15.7803723 67.3699503,16.9559714 L67.3699503,81.9507208 L51.7415351,81.9507208 L51.7415351,16.9559714 L51.7419357,16.9559714 Z M128.105415,9.9978043 L82.9563041,9.9978043 C81.4076433,9.9978043 80.1522105,11.2543962 80.1522105,12.8044869 C80.1522105,14.3545776 81.4076433,15.6111695 82.9563041,15.6111695 L128.105415,15.6111695 C129.827529,15.6111695 131.228775,17.0137088 131.228775,18.7370119 L131.228775,158.894721 C131.228775,160.618425 129.827529,162.020964 128.105415,162.020964 L25.5500994,162.020964 L25.5500994,15.6111695 L36.1696023,15.6111695 C37.7182632,15.6111695 38.9736959,14.3545776 38.9736959,12.8044869 C38.9736959,11.2543962 37.7182632,9.9978043 36.1696023,9.9978043 L7.48893275,9.9978043 C5.94027193,9.9978043 4.68483918,11.2543962 4.68483918,12.8044869 L4.68483918,21.397747 L3.00278363,21.397747 C1.45412281,21.397747 0.198690058,22.6543389 0.198690058,24.2044296 C0.198690058,25.7545203 1.45412281,27.0111122 3.00278363,27.0111122 L4.68483918,27.0111122 L4.68483918,42.9346253 L3.00278363,42.9346253 C1.45412281,42.9346253 0.198690058,44.1912172 0.198690058,45.7413079 C0.198690058,47.2913986 1.45412281,48.5479905 3.00278363,48.5479905 L4.68483918,48.5479905 L4.68483918,64.4719045 L3.00278363,64.4719045 C1.45412281,64.4719045 0.198690058,65.7284964 0.198690058,67.2785871 C0.198690058,68.8286778 1.45412281,70.0852697 3.00278363,70.0852697 L4.68483918,70.0852697 L4.68483918,86.0091838 L3.00278363,86.0091838 C1.45412281,86.0091838 0.198690058,87.2657757 0.198690058,88.8158663 C0.198690058,90.365957 1.45412281,91.6225489 3.00278363,91.6225489 L4.68483918,91.6225489 L4.68483918,107.546062 L3.00278363,107.546062 C1.45412281,107.546062 0.198690058,108.802654 0.198690058,110.352745 C0.198690058,111.902835 1.45412281,113.159427 3.00278363,113.159427 L4.68483918,113.159427 L4.68483918,129.083341 L3.00278363,129.083341 C1.45412281,129.083341 0.198690058,130.339933 0.198690058,131.890024 C0.198690058,133.440115 1.45412281,134.696706 3.00278363,134.696706 L4.68483918,134.696706 L4.68483918,150.62022 L3.00278363,150.62022 C1.45412281,150.62022 0.198690058,151.876811 0.198690058,153.426902 C0.198690058,154.976993 1.45412281,156.233585 3.00278363,156.233585 L4.68483918,156.233585 L4.68483918,164.828048 C4.68483918,166.378138 5.94027193,167.63473 7.48893275,167.63473 L128.105816,167.63473 C132.920444,167.63473 136.837363,163.714196 136.837363,158.895122 L136.837363,18.7370119 C136.836962,13.9183389 132.920044,9.9978043 128.105415,9.9978043 L128.105415,9.9978043 Z M19.9419123,162.021365 L10.2930263,162.021365 L10.2930263,156.233585 L11.9750819,156.233585 C13.5237427,156.233585 14.7791754,154.976993 14.7791754,153.426902 C14.7791754,151.876811 13.5237427,150.62022 11.9750819,150.62022 L10.2930263,150.62022 L10.2930263,134.696706 L11.9750819,134.696706 C13.5237427,134.696706 14.7791754,133.440115 14.7791754,131.890024 C14.7791754,130.339933 13.5237427,129.083341 11.9750819,129.083341 L10.2930263,129.083341 L10.2930263,113.159427 L11.9750819,113.159427 C13.5237427,113.159427 14.7791754,111.902835 14.7791754,110.352745 C14.7791754,108.802654 13.5237427,107.546062 11.9750819,107.546062 L10.2930263,107.546062 L10.2930263,91.6225489 L11.9750819,91.6225489 C13.5237427,91.6225489 14.7791754,90.365957 14.7791754,88.8158663 C14.7791754,87.2657757 13.5237427,86.0091838 11.9750819,86.0091838 L10.2930263,86.0091838 L10.2930263,70.0852697 L11.9750819,70.0852697 C13.5237427,70.0852697 14.7791754,68.8286778 14.7791754,67.2785871 C14.7791754,65.7284964 13.5237427,64.4719045 11.9750819,64.4719045 L10.2930263,64.4719045 L10.2930263,48.5479905 L11.9750819,48.5479905 C13.5237427,48.5479905 14.7791754,47.2913986 14.7791754,45.7413079 C14.7791754,44.1912172 13.5237427,42.9346253 11.9750819,42.9346253 L10.2930263,42.9346253 L10.2930263,27.0111122 L11.9750819,27.0111122 C13.5237427,27.0111122 14.7791754,25.7545203 14.7791754,24.2044296 C14.7791754,22.6543389 13.5237427,21.397747 11.9750819,21.397747 L10.2930263,21.397747 L10.2930263,15.6111695 L19.9419123,15.6111695 L19.9419123,162.021365 L19.9419123,162.021365 Z" id="XMLID_834_"></path>
                </g>
                <g id="ux-design-copy-2" transform="translate(469.000000, 9.000000)">
                    <g id="Capa_1">
                        <g id="Group">
                            <path d="M16.6193738,19.7894737 C17.4482387,19.7894737 18.2644814,19.4526316 18.8493151,18.8631579 C19.4383562,18.2778947 19.7749511,17.4610526 19.7749511,16.6315789 C19.7749511,15.8021053 19.4383562,14.9852632 18.8493151,14.4 C18.2644814,13.8105263 17.4524462,13.4736842 16.6193738,13.4736842 C15.7863014,13.4736842 14.9742661,13.8105263 14.3894325,14.4 C13.8003914,14.9852632 13.4637965,15.8021053 13.4637965,16.6315789 C13.4637965,17.4610526 13.8003914,18.2778947 14.3894325,18.8631579 C14.9742661,19.4526316 15.7905088,19.7894737 16.6193738,19.7894737 L16.6193738,19.7894737 Z" id="Shape"></path>
                            <path d="M26.7172211,19.7894737 C27.5502935,19.7894737 28.3623288,19.4526316 28.9471624,18.8631579 C29.5362035,18.2778947 29.8727984,17.4610526 29.8727984,16.6315789 C29.8727984,15.8021053 29.5362035,14.9852632 28.9471624,14.4 C28.3623288,13.8105263 27.5460861,13.4736842 26.7172211,13.4736842 C25.8883562,13.4736842 25.0721135,13.8105263 24.4872798,14.4 C23.8982387,14.9852632 23.5616438,15.8021053 23.5616438,16.6315789 C23.5616438,17.4610526 23.8982387,18.2778947 24.4872798,18.8631579 C25.0721135,19.4526316 25.8883562,19.7894737 26.7172211,19.7894737 L26.7172211,19.7894737 Z" id="Shape"></path>
                            <path d="M36.8150685,19.7894737 C37.6439335,19.7894737 38.4601761,19.4526316 39.0450098,18.8631579 C39.6340509,18.2778947 39.9706458,17.4610526 39.9706458,16.6315789 C39.9706458,15.8021053 39.6340509,14.9852632 39.0450098,14.4 C38.4601761,13.8105263 37.6439335,13.4736842 36.8150685,13.4736842 C35.9862035,13.4736842 35.1699609,13.8105263 34.5851272,14.4 C33.9960861,14.9852632 33.6594912,15.8021053 33.6594912,16.6315789 C33.6594912,17.4610526 33.9960861,18.2778947 34.5851272,18.8631579 C35.1699609,19.4526316 35.9862035,19.7894737 36.8150685,19.7894737 L36.8150685,19.7894737 Z" id="Shape"></path>
                            <path d="M50.278865,19.7894737 L178.184932,19.7894737 C179.927652,19.7894737 181.340509,18.3755789 181.340509,16.6315789 C181.340509,14.8875789 179.927652,13.4736842 178.184932,13.4736842 L50.278865,13.4736842 C48.5361448,13.4736842 47.1232877,14.8875789 47.1232877,16.6315789 C47.1232877,18.3755789 48.5361448,19.7894737 50.278865,19.7894737 L50.278865,19.7894737 Z" id="Shape"></path>
                            <path d="M191.648728,19.7894737 L198.380626,19.7894737 C200.123346,19.7894737 201.536204,18.3755789 201.536204,16.6315789 C201.536204,14.8875789 200.123346,13.4736842 198.380626,13.4736842 L191.648728,13.4736842 C189.906008,13.4736842 188.493151,14.8875789 188.493151,16.6315789 C188.493151,18.3755789 189.906008,19.7894737 191.648728,19.7894737 L191.648728,19.7894737 Z" id="Shape"></path>
                            <path d="M184.91683,47.1578947 L124.329746,47.1578947 C118.87775,47.1578947 114.44227,51.5966316 114.44227,57.0526316 L114.44227,57.2631579 L110.865949,57.2631579 C105.413953,57.2631579 100.978474,61.7018947 100.978474,67.1578947 L100.978474,94.3157895 L93.8258317,94.3157895 L93.8258317,84 C93.8258317,78.544 89.3903523,74.1052632 83.9383562,74.1052632 L30.0831703,74.1052632 C24.6311742,74.1052632 20.1956947,78.544 20.1956947,84 L20.1956947,110.947368 C20.1956947,116.403368 24.6311742,120.842105 30.0831703,120.842105 L83.9383562,120.842105 C89.3903523,120.842105 93.8258317,116.403368 93.8258317,110.947368 L93.8258317,100.631579 L100.978474,100.631579 L100.978474,127.789474 C100.978474,133.245474 105.413953,137.684211 110.865949,137.684211 L114.44227,137.684211 L114.44227,137.894737 C114.44227,143.350737 118.87775,147.789474 124.329746,147.789474 L184.91683,147.789474 C190.368826,147.789474 194.804305,143.350737 194.804305,137.894737 L194.804305,131.157895 C194.804305,125.701895 190.368826,121.263158 184.91683,121.263158 L124.329746,121.263158 C118.87775,121.263158 114.44227,125.701895 114.44227,131.157895 L114.44227,131.368421 L110.865949,131.368421 C108.893924,131.368421 107.289628,129.762947 107.289628,127.789474 L107.289628,100.631579 L114.44227,100.631579 L114.44227,100.842105 C114.44227,106.298105 118.87775,110.736842 124.329746,110.736842 L184.91683,110.736842 C190.368826,110.736842 194.804305,106.298105 194.804305,100.842105 L194.804305,94.1052632 C194.804305,88.6492632 190.368826,84.2105263 184.91683,84.2105263 L124.329746,84.2105263 C118.87775,84.2105263 114.44227,88.6492632 114.44227,94.1052632 L114.44227,94.3157895 L107.289628,94.3157895 L107.289628,67.1578947 C107.289628,65.1844211 108.893924,63.5789474 110.865949,63.5789474 L114.44227,63.5789474 L114.44227,63.7894737 C114.44227,69.2454737 118.87775,73.6842105 124.329746,73.6842105 L184.91683,73.6842105 C190.368826,73.6842105 194.804305,69.2454737 194.804305,63.7894737 L194.804305,57.0526316 C194.804305,51.5966316 190.368826,47.1578947 184.91683,47.1578947 L184.91683,47.1578947 Z M87.5146771,110.947368 C87.5146771,112.920842 85.9103816,114.526316 83.9383562,114.526316 L30.0831703,114.526316 C28.1111448,114.526316 26.5068493,112.920842 26.5068493,110.947368 L26.5068493,84 C26.5068493,82.0265263 28.1111448,80.4210526 30.0831703,80.4210526 L83.9383562,80.4210526 C85.9103816,80.4210526 87.5146771,82.0265263 87.5146771,84 L87.5146771,110.947368 L87.5146771,110.947368 Z M120.753425,131.157895 C120.753425,129.184421 122.35772,127.578947 124.329746,127.578947 L184.91683,127.578947 C186.888855,127.578947 188.493151,129.184421 188.493151,131.157895 L188.493151,137.894737 C188.493151,139.868211 186.888855,141.473684 184.91683,141.473684 L124.329746,141.473684 C122.35772,141.473684 120.753425,139.868211 120.753425,137.894737 L120.753425,131.157895 L120.753425,131.157895 Z M120.753425,94.1052632 C120.753425,92.1317895 122.35772,90.5263158 124.329746,90.5263158 L184.91683,90.5263158 C186.888855,90.5263158 188.493151,92.1317895 188.493151,94.1052632 L188.493151,100.842105 C188.493151,102.815579 186.888855,104.421053 184.91683,104.421053 L124.329746,104.421053 C122.35772,104.421053 120.753425,102.815579 120.753425,100.842105 L120.753425,94.1052632 L120.753425,94.1052632 Z M188.493151,63.7894737 C188.493151,65.7629474 186.888855,67.3684211 184.91683,67.3684211 L124.329746,67.3684211 C122.35772,67.3684211 120.753425,65.7629474 120.753425,63.7894737 L120.753425,57.0526316 C120.753425,55.0791579 122.35772,53.4736842 124.329746,53.4736842 L184.91683,53.4736842 C186.888855,53.4736842 188.493151,55.0791579 188.493151,57.0526316 L188.493151,63.7894737 L188.493151,63.7894737 Z" id="Shape"></path>
                            <path d="M198.380626,0 L16.6193738,0 C7.4555773,0 0,7.46105263 0,16.6315789 L0,151.368421 C0,160.538947 7.4555773,168 16.6193738,168 L198.380626,168 C207.544423,168 215,160.538947 215,151.368421 L215,16.6315789 C215,7.46105263 207.544423,0 198.380626,0 L198.380626,0 Z M16.6193738,6.31578947 L198.380626,6.31578947 C204.064452,6.31578947 208.688845,10.9435789 208.688845,16.6315789 L208.688845,26.9473684 L6.3111546,26.9473684 L6.3111546,16.6315789 C6.3111546,10.9435789 10.9355479,6.31578947 16.6193738,6.31578947 L16.6193738,6.31578947 Z M198.380626,161.684211 L16.6193738,161.684211 C10.9355479,161.684211 6.3111546,157.056421 6.3111546,151.368421 L6.3111546,33.2631579 L208.688845,33.2631579 L208.688845,151.368421 C208.688845,157.056421 204.064452,161.684211 198.380626,161.684211 L198.380626,161.684211 Z" id="Shape"></path>
                        </g>
                    </g>
                </g>
                <g id="browser-1-copy" transform="translate(946.000000, 984.000000)">
                    <g id="Capa_1">
                        <g id="Group">
                            <path d="M0,167.60646 L206,167.60646 L206,0.39354 L0,0.39354 L0,167.60646 L0,167.60646 Z M6.4377102,6.825 L199.56271,6.825 L199.56271,161.175 L6.4377102,161.175 L6.4377102,6.825 L6.4377102,6.825 Z" id="Shape"></path>
                            <polygon id="Shape" points="41.9319306 50.40126 37.707249 46.18068 33.1554898 50.72802 42.1833347 59.74668 59.3645755 40.6791 54.5740245 36.37074"></polygon>
                            <rect id="Rectangle-path" x="76.2818" y="38.52492" width="51.5" height="6.43146"></rect>
                            <rect id="Rectangle-path" x="76.2818" y="51.38742" width="96.5627102" height="6.43146"></rect>
                            <rect id="Rectangle-path" x="76.2818" y="74.46222" width="51.5" height="6.43146"></rect>
                            <rect id="Rectangle-path" x="76.2818" y="87.32472" width="96.5627102" height="6.43146"></rect>
                            <rect id="Rectangle-path" x="76.2818" y="110.4054" width="51.5" height="6.43146"></rect>
                            <rect id="Rectangle-path" x="76.2818" y="123.2679" width="96.5627102" height="6.43146"></rect>
                            <path d="M44.4590041,71.24628 C37.3612531,71.24628 31.5840041,77.01792 31.5840041,84.10878 C31.5840041,91.19964 37.3612531,96.97128 44.4590041,96.97128 C51.5567551,96.97128 57.3340041,91.19964 57.3340041,84.10878 C57.3340041,77.01834 51.5567551,71.24628 44.4590041,71.24628 L44.4590041,71.24628 Z M44.4590041,90.54024 C40.9069755,90.54024 38.0212939,87.65736 38.0212939,84.10878 C38.0212939,80.5602 40.9069755,77.67732 44.4590041,77.67732 C48.0110327,77.67732 50.8967143,80.5602 50.8967143,84.10878 C50.8962939,87.65736 48.0110327,90.54024 44.4590041,90.54024 L44.4590041,90.54024 Z" id="Shape"></path>
                            <path d="M44.4590041,107.18988 C37.3612531,107.18988 31.5840041,112.96152 31.5840041,120.05238 C31.5840041,127.14324 37.3612531,132.91488 44.4590041,132.91488 C51.5567551,132.91488 57.3340041,127.14324 57.3340041,120.05238 C57.3340041,112.96152 51.5567551,107.18988 44.4590041,107.18988 L44.4590041,107.18988 Z M44.4590041,126.48342 C40.9069755,126.48342 38.0212939,123.60054 38.0212939,120.05196 C38.0212939,116.50338 40.9069755,113.6205 44.4590041,113.6205 C48.0110327,113.6205 50.8967143,116.50338 50.8967143,120.05196 C50.8967143,123.60054 48.0110327,126.48342 44.4590041,126.48342 L44.4590041,126.48342 Z" id="Shape"></path>
                        </g>
                    </g>
                </g>
                <g id="apple-tv-copy-2" transform="translate(0.000000, 984.000000)">
                    <g id="Capa_1">
                        <path d="M134.853486,123.386308 L126.628361,105.957923 C124.489861,101.428385 119.921248,98.5384615 114.900633,98.5384615 L21.1857307,98.5384615 C16.1651159,98.5384615 11.5965023,101.428385 9.45800227,105.957923 L1.23287765,123.386308 C0.421219697,125.106692 0,126.985385 0,128.888308 L0,158.659846 C0,163.817769 4.19437614,168 9.36727803,168 L126.719086,168 C131.891987,168 136.086364,163.817769 136.086364,158.659846 L136.086364,128.888308 C136.086364,126.985385 135.665144,125.106692 134.853486,123.386308 L134.853486,123.386308 Z M4.16521477,124.761 L12.3903394,107.334231 C13.986114,103.953231 17.4384955,101.769231 21.1857307,101.769231 L114.900633,101.769231 C118.647868,101.769231 122.10025,103.953231 123.696024,107.334231 L131.921149,124.761 C132.424992,125.828769 132.718226,126.998308 132.80571,128.177538 C132.716606,128.967462 132.441193,129.734769 131.977852,130.41 C131.08519,131.713615 129.683824,132.461538 128.133412,132.461538 L7.95295189,132.461538 C6.40253939,132.461538 5.00117386,131.713615 4.10851212,130.41 C3.64517045,129.734769 3.36975758,128.967462 3.28065341,128.177538 C3.3681375,126.998308 3.66137121,125.828769 4.16521477,124.761 L4.16521477,124.761 Z M132.846212,158.659846 C132.846212,162.027923 130.098564,164.769231 126.719086,164.769231 L9.36727803,164.769231 C5.9878,164.769231 3.24015152,162.027923 3.24015152,158.659846 L3.24015152,131.918769 C4.86022727,133.224 6.03316212,134.076923 7.95295189,134.076923 L128.133412,134.076923 C130.053202,134.076923 131.226136,133.224 132.846212,131.918769 L132.846212,158.659846 L132.846212,158.659846 Z" id="Shape"></path>
                        <g id="Group" transform="translate(155.527273, 0.000000)">
                            <path d="M51.8424242,9.69230769 C51.8424242,4.33892308 47.4909008,0 42.1219697,0 L9.72045455,0 C4.35152348,0 0,4.33892308 0,9.69230769 L0,158.307692 C0,163.661077 4.35152348,168 9.72045455,168 L42.1219697,168 C47.4909008,168 51.8424242,163.661077 51.8424242,158.307692 L51.8424242,9.69230769 L51.8424242,9.69230769 Z M48.6022727,158.307692 C48.6022727,161.869615 45.6958568,164.769231 42.1219697,164.769231 L9.72045455,164.769231 C6.14656742,164.769231 3.24015152,161.869615 3.24015152,158.307692 L3.24015152,72.6923077 L48.6022727,72.6923077 L48.6022727,158.307692 L48.6022727,158.307692 Z M48.6022727,71.0769231 L3.24015152,71.0769231 L3.24015152,9.69230769 C3.24015152,6.12876923 6.14656742,3.23076923 9.72045455,3.23076923 L42.1219697,3.23076923 C45.6958568,3.23076923 48.6022727,6.12876923 48.6022727,9.69230769 L48.6022727,71.0769231 L48.6022727,71.0769231 Z" id="Shape"></path>
                            <path d="M37.2617424,51.6923077 C32.7887133,51.6923077 29.1613636,55.3075385 29.1613636,59.7692308 C29.1613636,64.2293077 32.7887133,67.8461538 37.2617424,67.8461538 C41.7347716,67.8461538 45.3621212,64.2293077 45.3621212,59.7692308 C45.3621212,55.3075385 41.7347716,51.6923077 37.2617424,51.6923077 L37.2617424,51.6923077 Z M37.2617424,66.2307692 C33.6878553,66.2307692 30.7814394,63.3311538 30.7814394,59.7692308 C30.7814394,56.2056923 33.6878553,53.3076923 37.2617424,53.3076923 C40.8356295,53.3076923 43.7420455,56.2056923 43.7420455,59.7692308 C43.7420455,63.3311538 40.8356295,66.2307692 37.2617424,66.2307692 L37.2617424,66.2307692 Z" id="Shape"></path>
                            <path d="M14.5806818,51.6923077 C10.1076527,51.6923077 6.48030303,55.3075385 6.48030303,59.7692308 C6.48030303,64.2293077 10.1076527,67.8461538 14.5806818,67.8461538 C19.053711,67.8461538 22.6810606,64.2293077 22.6810606,59.7692308 C22.6810606,55.3075385 19.053711,51.6923077 14.5806818,51.6923077 L14.5806818,51.6923077 Z M14.5806818,66.2307692 C11.0067947,66.2307692 8.10037879,63.3311538 8.10037879,59.7692308 C8.10037879,56.2056923 11.0067947,53.3076923 14.5806818,53.3076923 C18.1545689,53.3076923 21.0609848,56.2056923 21.0609848,59.7692308 C21.0609848,63.3311538 18.1545689,66.2307692 14.5806818,66.2307692 L14.5806818,66.2307692 Z" id="Shape"></path>
                            <path d="M20.250947,8.07692308 L31.5914773,8.07692308 C32.0369981,8.07692308 32.4015152,7.71346154 32.4015152,7.26923077 C32.4015152,6.825 32.0369981,6.46153846 31.5914773,6.46153846 L20.250947,6.46153846 C19.8054261,6.46153846 19.4409091,6.825 19.4409091,7.26923077 C19.4409091,7.71346154 19.8054261,8.07692308 20.250947,8.07692308 L20.250947,8.07692308 Z" id="Shape"></path>
                            <path d="M35.6416667,111.461538 C40.096875,111.461538 43.7420455,107.826923 43.7420455,103.384615 L43.7420455,84 C43.7420455,79.5576923 40.096875,75.9230769 35.6416667,75.9230769 C31.1864583,75.9230769 27.5412879,79.5576923 27.5412879,84 L27.5412879,103.384615 C27.5412879,107.826923 31.1864583,111.461538 35.6416667,111.461538 L35.6416667,111.461538 Z M29.1613636,84 C29.1613636,80.4364615 32.0677795,77.5384615 35.6416667,77.5384615 C39.2155538,77.5384615 42.1219697,80.4364615 42.1219697,84 L42.1219697,103.384615 C42.1219697,106.946538 39.2155538,109.846154 35.6416667,109.846154 C32.0677795,109.846154 29.1613636,106.946538 29.1613636,103.384615 L29.1613636,84 L29.1613636,84 Z" id="Shape"></path>
                            <path d="M14.5806818,111.461538 C19.053711,111.461538 22.6810606,107.844692 22.6810606,103.384615 C22.6810606,98.9229231 19.053711,95.3076923 14.5806818,95.3076923 C10.1076527,95.3076923 6.48030303,98.9229231 6.48030303,103.384615 C6.48030303,107.844692 10.1076527,111.461538 14.5806818,111.461538 L14.5806818,111.461538 Z M14.5806818,96.9230769 C18.1545689,96.9230769 21.0609848,99.8210769 21.0609848,103.384615 C21.0609848,106.946538 18.1545689,109.846154 14.5806818,109.846154 C11.0067947,109.846154 8.10037879,106.946538 8.10037879,103.384615 C8.10037879,99.8210769 11.0067947,96.9230769 14.5806818,96.9230769 L14.5806818,96.9230769 Z" id="Shape"></path>
                            <path d="M14.5806818,92.0769231 C19.053711,92.0769231 22.6810606,88.4600769 22.6810606,84 C22.6810606,79.5383077 19.053711,75.9230769 14.5806818,75.9230769 C10.1076527,75.9230769 6.48030303,79.5383077 6.48030303,84 C6.48030303,88.4600769 10.1076527,92.0769231 14.5806818,92.0769231 L14.5806818,92.0769231 Z M14.5806818,77.5384615 C18.1545689,77.5384615 21.0609848,80.4364615 21.0609848,84 C21.0609848,87.5619231 18.1545689,90.4615385 14.5806818,90.4615385 C11.0067947,90.4615385 8.10037879,87.5619231 8.10037879,84 C8.10037879,80.4364615 11.0067947,77.5384615 14.5806818,77.5384615 L14.5806818,77.5384615 Z" id="Shape"></path>
                        </g>
                    </g>
                </g>
            </g>
        </g>
    </g>
</svg>