<svg width="284" height="284" viewBox="0 0 284 284" fill="none" xmlns="http://www.w3.org/2000/svg">
<path d="M219.111 180.03C219.081 180.36 219.061 180.7 219.031 181.03C218.851 182.97 218.601 184.89 218.281 186.78C218.221 187.14 218.151 187.49 218.091 187.85C217.741 189.77 217.331 191.67 216.851 193.54C216.801 193.72 216.741 193.9 216.691 194.09C216.191 195.94 215.631 197.76 215.001 199.56C214.941 199.73 214.891 199.9 214.831 200.07C214.171 201.9 213.441 203.69 212.651 205.46C212.531 205.73 212.411 206.01 212.281 206.28C211.471 208.03 210.611 209.75 209.681 211.42C209.581 211.6 209.471 211.78 209.361 211.97C208.721 213.1 208.011 214.19 207.311 215.28C207.331 214.7 207.381 214.12 207.381 213.53C207.381 212.18 207.311 210.85 207.211 209.53C207.171 209.04 207.101 208.55 207.051 208.06C206.961 207.26 206.871 206.46 206.741 205.67C206.641 205.05 206.521 204.44 206.401 203.83C206.281 203.22 206.151 202.61 206.001 202C205.831 201.29 205.651 200.59 205.451 199.89C205.321 199.46 205.191 199.03 205.051 198.6C204.791 197.77 204.521 196.95 204.221 196.14C204.191 196.07 204.161 196 204.131 195.93C202.241 190.98 199.561 186.44 196.281 182.41C184.221 168.41 177.081 152.77 175.691 139.5C175.691 139.45 175.671 139.39 175.661 139.34C174.651 132.47 175.421 126.34 178.191 121.4C162.891 126.72 148.951 140.33 141.751 159.08C135.881 174.36 135.631 190.11 139.951 203.12C130.251 196.5 123.771 188.27 122.131 179.86C113.911 188.68 108.881 200.52 108.881 213.54C108.881 227.42 114.611 239.94 123.811 248.91C90.1005 240.62 65.0605 210.21 65.0605 173.87C65.0605 153.47 72.9505 134.93 85.8205 121.11C88.3905 134.29 98.5505 147.18 113.741 157.55C106.971 137.17 107.371 112.5 116.561 88.56C127.841 59.18 149.681 37.86 173.651 29.52C169.301 37.27 168.111 46.86 169.681 57.63C169.681 57.71 169.711 57.8 169.721 57.88C171.891 78.67 183.071 103.17 201.971 125.1C207.111 131.41 211.311 138.53 214.271 146.28C214.311 146.39 214.361 146.5 214.401 146.61C214.881 147.88 215.301 149.17 215.711 150.47C215.921 151.14 216.141 151.81 216.331 152.49C216.641 153.58 216.931 154.69 217.201 155.8C217.431 156.75 217.631 157.71 217.831 158.67C218.021 159.63 218.211 160.59 218.371 161.56C218.571 162.8 218.721 164.05 218.861 165.3C218.941 166.07 219.051 166.83 219.111 167.6C219.281 169.67 219.381 171.75 219.381 173.87C219.381 175.99 219.271 178 219.121 180.03H219.111Z" fill="#EBDBCD"/>
</svg>
