<?xml version="1.0" encoding="UTF-8"?>
<svg xmlns="http://www.w3.org/2000/svg" version="1.1" viewBox="0 0 1045.04 447.37">
  <!-- Generator: Adobe Illustrator 29.2.1, SVG Export Plug-In . SVG Version: 2.1.0 Build 116)  -->
  <defs>
    <style>
      .st0 {
        fill: none;
      }

      .st1 {
        fill: #1d1e1c;
        opacity: 0;
      }

      .st2 {
        fill: #574a44;
      }
    </style>
  </defs>
  <g id="Logo">
    <g>
      <path class="st2" d="M873.31,244.28h-40.72c-12.25,0-17.83-10.96-17.83-21.2s5.58-21.2,17.83-21.2h40.72v-29.27c0-1.86-1.6-4.3-4.28-4.3h-37.42c-26.65,0-41.79,18.12-46.02,40.51-1.18,6.24-1.69,18.27-.64,24.93,3.77,23.89,18.51,44.11,46.66,44.11h37.42c2.68,0,4.28-2.26,4.28-4.35v-29.23Z"/>
      <circle class="st2" cx="830.94" cy="223.55" r="13.01"/>
    </g>
    <path class="st2" d="M208.55,177.01c2.7-2.59,9.51-6.98,13.88-8.34,49.1-15.32,85.3,42.81,60.6,84.3-25.76,43.27-108.05,27.42-108.05-21.15v-108.13h29.23c2.3,0,4.34,2.05,4.34,4.28v49.04ZM227.08,198.01c-25.9,3.49-24.9,45.91-1.24,49.11,43.26,5.86,42.67-54.69,1.24-49.11Z"/>
    <path class="st2" d="M544.86,277.73h-30.13v-61.72c0-25.27-44.44-22.25-44.44-1.97v59.41c0,1.82-1.59,4.28-4.33,4.28h-29.24v-65.67c0-58.41,111.58-61.57,111.58,2.96v59.26c0,1.9-1.54,3.44-3.44,3.44Z"/>
    <path class="st2" d="M678.59,172.39v105.34h-33.57v-109.61h29.31c2.64,0,4.26,2.15,4.26,4.27Z"/>
    <path class="st2" d="M361.5,166.43c-77.96,2.33-74.01,115.95,5.64,112.32,74.9-3.42,72.35-114.64-5.64-112.32ZM392.02,226.69c-.01.12-.02.25-.03.37-.07.72-.16,1.43-.28,2.14-.02.13-.05.27-.07.4-.13.71-.28,1.42-.46,2.12-.02.07-.04.14-.06.2-.19.69-.4,1.37-.63,2.03-.02.06-.04.13-.06.19-.24.68-.52,1.35-.81,2-.05.1-.09.2-.14.3-.3.65-.62,1.29-.97,1.91-.04.07-.08.14-.12.2-.24.42-.5.82-.76,1.23,0-.22.03-.43.03-.65,0-.5-.02-1-.06-1.49-.01-.18-.04-.36-.06-.55-.03-.3-.07-.59-.12-.89-.04-.23-.08-.46-.13-.69-.05-.23-.09-.46-.15-.68-.06-.26-.13-.53-.2-.79-.05-.16-.1-.32-.15-.48-.1-.31-.2-.61-.31-.92-.01-.03-.02-.05-.03-.08-.7-1.84-1.7-3.53-2.92-5.03-4.48-5.21-7.14-11.02-7.65-15.95,0-.02,0-.04,0-.06-.37-2.56-.09-4.83.94-6.67-5.69,1.98-10.87,7.04-13.55,14.01-2.18,5.68-2.28,11.54-.67,16.37-3.61-2.46-6.02-5.52-6.63-8.65-3.05,3.28-4.93,7.68-4.93,12.52,0,5.16,2.13,9.82,5.55,13.15-12.53-3.08-21.84-14.39-21.84-27.9,0-7.58,2.93-14.48,7.72-19.62.95,4.9,4.73,9.69,10.38,13.55-2.52-7.58-2.37-16.75,1.05-25.65,4.19-10.92,12.31-18.85,21.22-21.95-1.62,2.88-2.06,6.45-1.47,10.45,0,.03.01.06.01.09.81,7.73,4.96,16.84,11.99,24.99,1.91,2.35,3.47,4.99,4.57,7.87.02.04.03.08.05.12.18.47.33.95.49,1.43.08.25.16.5.23.75.12.41.22.82.32,1.23.08.35.16.71.23,1.07.07.36.14.71.2,1.07.07.46.13.93.18,1.39.03.29.07.57.09.86.06.77.1,1.54.1,2.33s-.04,1.53-.1,2.29Z"/>
    <path class="st2" d="M727.49,226.7c-.12-11.99,4.33-24.78,17.93-24.78h30.71v-29.29c0-2.11-1.72-4.28-4.28-4.28h-27.42c-32.87,0-48.18,28.95-47.57,57.36v52.16h26.75c2.71,0,4.32-2.32,4.32-4.28l-.45-46.88Z"/>
    <path class="st2" d="M633.62,112.73c-6.63-.87-19.22.1-25.29,1.37-20.5,4.27-41.27,22.25-41.27,43.65v119.98h29.24s1.27,0,2.8-.94c1.68-1.03,1.53-2.7,1.53-2.7v-74.41h26.35v-27.57c-.01-2.09-2.12-3.98-4.28-3.98h-22.06v-.05c-.77-18.59,15.29-26.89,34.53-23.36l2,.34v-27.83c0-2.13-1.12-4.18-3.55-4.5Z"/>
  </g>
  <g id="friyta">
    <rect class="st0" width="1045.04" height="447.37"/>
    <rect class="st1" x="531.63" y="-.98" width="113.39" height="113.39"/>
    <rect class="st1" x="4.9" y="148.67" width="170.08" height="113.39"/>
    <rect class="st1" x="873.31" y="148.67" width="170.08" height="113.39"/>
    <rect class="st1" x="495.44" y="305.63" width="170.08" height="113.39" transform="translate(942.8 -218.15) rotate(90)"/>
  </g>
</svg>