<?xml version="1.0" encoding="UTF-8" standalone="no"?>
<svg width="170px" height="50px" viewBox="0 0 170 50" version="1.1" xmlns="http://www.w3.org/2000/svg" xmlns:xlink="http://www.w3.org/1999/xlink">
    <!-- Generator: Sketch 40.1 (33804) - http://www.bohemiancoding.com/sketch -->
    <title>icore_logo</title>
    <desc>Created with Sketch.</desc>
    <defs></defs>
    <g id="Page-1" stroke="none" stroke-width="1" fill="none" fill-rule="evenodd">
        <g id="icore_logo" fill="#E30613">
            <g id="Page-1">
                <g id="iCore_logotyp_CMYK">
                    <polygon id="Fill-1" points="11 16 0 16 0 50 11 50"></polygon>
                    <path d="M23.218341,49.21427 C24.521591,49.739082 25.755944,50 26.921397,50 L49,50 L49,39.214072 L30.624454,39.214072 C29.320233,39.214072 28.434255,38.810294 27.969432,37.999762 C27.643377,37.476934 27.480349,36.428302 27.480349,34.856842 L27.480349,12.999266 C27.759825,11.666898 28.573993,10.928788 29.925764,10.785928 L49,10.785928 L49,0 L28.458515,0 C24.172246,0 21.19214,0.80953987 19.515284,2.4276275 C17.838428,4.0476994 17,7.0239489 17,11.356376 L17,38.856922 C17,44.096113 19.07181,47.548563 23.218341,49.21427" id="Fill-2"></path>
                    <path d="M107.74271,10.785928 L118.4307,10.785928 C118.76293,10.785928 118.99967,10.809738 119.14291,10.856368 C120.90053,11.142088 121.77984,12.11929 121.77984,13.784998 L121.77984,18.356517 C121.77984,20.262309 120.82991,21.213717 118.92905,21.213717 L114.58422,21.213717 C110.64125,21.213717 108.47978,23.309988 108.1008,27.50154 C107.95756,28.930139 108.24204,30.214887 108.95922,31.357767 L120.27586,50 L133,50 L120.74934,30.230758 L122.47215,30.285328 C122.9506,30.285328 123.57228,30.238698 124.33919,30.142468 C128.78946,29.47678 131.49204,26.833871 132.45093,22.214731 C132.49773,21.738532 132.52253,21.048042 132.52253,20.14227 L132.52253,10.143063 C132.52253,9.1420515 132.49763,8.4991816 132.45093,8.2134616 C131.59151,2.7381496 128.17672,0 122.20855,0 L97,0 L97,50 L107.74271,50 L107.74271,10.785928" id="Fill-3"></path>
                    <path d="M4.9096792,0 C1.831469,0 0,1.5819057 0,4.8811927 C0,6.1279748 0.0172876,9.6116307 0.0172876,11 L11,11 L11,0 L4.9096792,0" id="Fill-4"></path>
                    <path d="M69.458842,10.642076 L79.329268,10.642076 L79.329268,39.214072 L64.706414,39.214072 C64.706414,37.861862 64.688634,16.611441 64.688634,15.397131 C64.688634,12.183773 66.468078,10.642076 69.458847,10.642076 L69.458847,10.642076 L69.458842,10.642076 Z M58.841463,48.346197 C60.452942,49.449394 62.896341,50 66.168699,50 L78.760163,50 C86.253388,50 90,46.405683 90,39.214072 L90,10.785928 C90,3.5953094 86.284017,0 78.853037,0 L66.216125,0 C63.09296,0 60.6792,0.59524991 58.975836,1.7847576 C57.130194,3.0704974 55.899108,5.1905792 55.283565,8.1420266 C55.093863,9.0954186 55,9.9763884 55,10.785928 L55,39.214072 C55,39.886704 55.09386,40.748824 55.284553,41.802417 C55.853659,44.871922 57.038307,47.052521 58.841463,48.346197 L58.841463,48.346197 L58.841463,48.346197 Z" id="Fill-5"></path>
                    <path d="M150.32325,10.999226 C150.60335,10.856366 150.81342,10.785928 150.95347,10.785928 L170,10.785928 L170,0 L148.2235,0 C142.43388,0 139.09607,2.86216 138.2091,8.5854878 C138.06905,9.4843152 138,10.218457 138,10.785928 L138,39.552372 C138,46.51878 141.89703,50 149.69304,50 L170,50 L170,39.214072 L151.23356,39.214072 C149.41294,39.024584 148.50263,37.905514 148.50263,35.856862 L148.50263,30.285323 L170,30.285323 L170,19.499395 L148.50263,19.499395 L148.50263,13.927856 C148.50263,12.357388 149.1095,11.381178 150.32325,10.999226" id="Fill-6"></path>
                </g>
            </g>
        </g>
    </g>
</svg>