<?xml version="1.0" standalone="no"?>
<!DOCTYPE svg PUBLIC "-//W3C//DTD SVG 20010904//EN"
 "http://www.w3.org/TR/2001/REC-SVG-20010904/DTD/svg10.dtd">
<svg version="1.0" xmlns="http://www.w3.org/2000/svg"
 width="260.000000pt" height="260.000000pt" viewBox="0 0 260.000000 260.000000"
 preserveAspectRatio="xMidYMid meet">
<metadata>
Created by potrace 1.11, written by Peter Selinger 2001-2013
</metadata>
<g transform="translate(0.000000,260.000000) scale(0.100000,-0.100000)"
fill="#000000" stroke="none">
<path d="M0 1300 l0 -1300 1300 0 1300 0 0 1300 0 1300 -1300 0 -1300 0 0
-1300z m1515 1026 c307 -67 574 -270 714 -545 89 -177 116 -290 115 -491 -2
-182 -28 -293 -109 -455 -135 -273 -382 -473 -680 -551 -87 -23 -120 -27 -255
-27 -135 0 -168 4 -255 27 -298 78 -545 278 -680 551 -81 162 -107 273 -109
455 -1 201 26 314 115 491 143 280 432 496 734 548 33 6 71 13 85 15 48 9 256
-3 325 -18z"/>
<path d="M1692 1808 c-99 -15 -173 -67 -209 -146 -21 -45 -25 -65 -20 -112 11
-128 83 -191 267 -235 124 -29 155 -52 175 -123 10 -36 -13 -90 -45 -107 -37
-19 -93 -19 -129 0 -26 13 -40 36 -56 92 -6 23 -2 23 -120 4 -52 -8 -56 -33
-20 -107 44 -89 125 -134 245 -134 83 0 150 21 207 64 61 46 86 95 86 172 0
126 -70 212 -202 250 -174 50 -192 57 -216 86 -57 67 -13 168 73 168 49 0 86
-28 104 -76 l13 -36 54 6 c111 13 118 22 82 101 -46 102 -158 154 -289 133z"/>
<path d="M1290 1734 c-41 -7 -76 -13 -77 -13 -2 -1 -4 -123 -5 -273 l-3 -271
-99 249 c-54 137 -102 252 -105 255 -3 4 -34 2 -68 -3 l-61 -10 -6 -42 c-3
-22 -10 -133 -16 -246 -6 -113 -14 -216 -16 -230 -4 -17 -29 47 -86 220 -44
135 -84 249 -88 254 -5 5 -43 3 -90 -4 -68 -11 -80 -15 -75 -29 4 -9 70 -189
147 -401 78 -212 144 -389 148 -394 11 -11 150 13 155 28 2 6 12 128 22 271
l18 260 99 -242 c54 -132 102 -246 105 -252 7 -10 139 5 152 18 4 3 12 164 18
356 6 193 14 387 17 433 4 45 2 81 -2 81 -5 -1 -43 -7 -84 -15z"/>
</g>
</svg>
