<?xml version="1.0" encoding="UTF-8"?>
<svg width="13px" height="16px" viewBox="0 0 13 16" version="1.1" xmlns="http://www.w3.org/2000/svg" xmlns:xlink="http://www.w3.org/1999/xlink">
    <!-- Generator: Sketch 46.2 (44496) - http://www.bohemiancoding.com/sketch -->
    <title>location-icon</title>
    <desc>Created with Sketch.</desc>
    <defs></defs>
    <g id="Page-1" stroke="none" stroke-width="1" fill="none" fill-rule="evenodd">
        <g id="iPad" transform="translate(-332.000000, -257.000000)" fill-rule="nonzero" fill="#5886E8">
            <g id="bio" transform="translate(308.000000, 209.000000)">
                <g id="plats" transform="translate(24.000000, 48.000000)">
                    <g id="location-icon">
                        <g id="Layer_1">
                            <path d="M6.04491387,0.0058705457 C2.65476337,0.143127785 -3.37507799e-14,3.01219433 -3.37507799e-14,6.53857016 C-3.37507799e-14,11.455063 5.98552504,15.617979 6.24043134,15.7923886 L6.54479338,16 L6.84109296,15.7802945 C7.07639108,15.6058849 12.5997863,11.4363093 12.5997863,6.07295656 C12.5987543,4.45682997 11.9414448,2.93327792 10.74741,1.78568345 C9.49558274,0.583392629 7.79726569,-0.0694661448 6.04491387,0.0058705457 L6.04491387,0.0058705457 Z M6.30078547,1.82981023 C7.52658092,1.82981023 8.72059829,2.30620855 9.60543796,3.15631278 C10.4820499,3.99819019 10.9640764,5.11305216 10.9640764,6.29314309 C10.9640764,9.98789708 7.48538972,13.1304979 6.49360145,13.9504371 C5.43417048,13.1533501 1.63392468,10.0602678 1.63392468,6.70555507 C1.63392468,4.07480241 3.60053341,1.934845 6.1115402,1.83338094 C6.17369836,1.83063867 6.23862731,1.82980685 6.30078547,1.82980685 L6.30078547,1.82981023 Z M6.15834037,4.00169918 C4.87159962,4.05443596 3.8674645,5.17398756 3.91884072,6.49480416 C3.97021694,7.78325955 5.00485668,8.79595181 6.24956234,8.79595181 C6.28108866,8.79595181 6.31381882,8.79480946 6.34534513,8.79361461 C7.63208588,8.74087783 8.63622158,7.62132624 8.58484536,6.30050952 C8.5323015,4.97969292 7.42056041,3.95376037 6.15834037,4.00169918 Z M6.26329405,5.48454342 L6.29900117,5.48454342 C6.78621144,5.48454342 7.19211052,5.87027538 7.21130642,6.36114201 C7.23141642,6.86572001 6.83928582,7.29082925 6.33470783,7.31093924 C5.85663846,7.32008015 5.40589181,6.93800455 5.38669591,6.43434065 C5.36658591,5.93067674 5.75871651,5.50465341 6.26329405,5.48454342 L6.26329405,5.48454342 Z" id="path7"></path>
                        </g>
                    </g>
                </g>
            </g>
        </g>
    </g>
</svg>